# xmcd
#
# Track frame offsets:
#	150
#	21417
#	36902
#	54510
#	70972
#	84245
#	102807
#	120882
#	137105
#	150755
#	168695
#	185940
#	195340
#	216247
#	230727
#
# Disc length: 3299 seconds
#
# Revision: 1
# Processed by: cddbd v1.5.1PL2 Copyright (c) Steve Scherf et al.
# Submitted via: audiograbber 1.83.01
#
DISCID=cb0ce10f
DTITLE=Music Maestro - MM6272
DYEAR=1900
DGENRE=Karaoke
TTITLE0=Shepherd, Kenny Wayne - Blue On Black
TTITLE1=Redding, Otis - I've Been Loving You Too Long
TTITLE2=Redding, Otis - Dreams To Remember
TTITLE3=Redding, Otis - Try A Little Tenderness
TTITLE4=King, B.B. - I'll Survive
TTITLE5=Allison, Luther - If Loving You Is Wrong I Don't Want To Be Right
TTITLE6=Allison, Luther - What Have I Done Wrong
TTITLE7=Allison, Luther - Move From The Hood
TTITLE8=Hooker, John Lee - I'm In The Mood
TTITLE9=Vaughan, Stevie Ray - Tightrope
TTITLE10=Vaughan, Stevie Ray - Texas Flood
TTITLE11=Vaughan, Stevie Ray - Love Struck Baby
TTITLE12=Lang, Johnny - Leaving To Stay
TTITLE13=Keb 'Mo - Love In Vain
TTITLE14=Buddy Guy - Damn Right I've Got The Blues
EXTD=As Listed In KJ Pro
EXTT0=
EXTT1=
EXTT2=
EXTT3=
EXTT4=
EXTT5=
EXTT6=
EXTT7=
EXTT8=
EXTT9=
EXTT10=
EXTT11=
EXTT12=
EXTT13=
EXTT14=
PLAYORDER=
